<?xml version="1.0" encoding="utf-8"?>
<!-- Generator: Adobe Illustrator 17.0.0, SVG Export Plug-In . SVG Version: 6.00 Build 0)  -->
<!DOCTYPE svg PUBLIC "-//W3C//DTD SVG 1.1//EN" "http://www.w3.org/Graphics/SVG/1.1/DTD/svg11.dtd">
<svg version="1.1" id="Слой_1" xmlns="http://www.w3.org/2000/svg" xmlns:xlink="http://www.w3.org/1999/xlink" x="0px" y="0px"
	 width="32.292px" height="31.944px" viewBox="0 0 32.292 31.944" enable-background="new 0 0 32.292 31.944" xml:space="preserve">
<path fill="#D1D2D3" d="M16.146,1.072c-8.229,0-14.901,6.671-14.901,14.901c0,8.229,6.671,14.9,14.901,14.9
	c8.229,0,14.901-6.67,14.901-14.9C31.046,7.743,24.375,1.072,16.146,1.072z M20.818,10.918c-0.118-0.029-0.445-0.06-0.771-0.06
	c-1.096,0-2.937,0.267-2.937,2.462v0.564h3.264v2.996h-3.264v7.44h-3.766v-7.44h-1.869v-2.996h1.869v-0.652
	c0-4.953,4.093-5.606,6.198-5.606c0.446,0,0.832,0,1.277,0.089V10.918z"/>
</svg>
