<svg xmlns="http://www.w3.org/2000/svg" width="127.559" height="34.016"><path d="M59.564.068c-6.61 0-11.963 5.299-11.963 11.835 0 6.537 5.353 11.835 11.963 11.835 6.605 0 11.962-5.299 11.962-11.835s-5.355-11.835-11.962-11.835zm0 17.282c-3.041 0-5.509-2.438-5.509-5.447 0-3.006 2.469-5.446 5.509-5.446 3.041 0 5.506 2.44 5.506 5.446 0 3.009-2.465 5.447-5.506 5.447zM85.562.068c-6.612 0-11.965 5.299-11.965 11.835 0 6.537 5.353 11.835 11.965 11.835 6.604 0 11.961-5.299 11.961-11.835s-5.356-11.835-11.961-11.835zm0 17.282c-3.042 0-5.514-2.438-5.514-5.447 0-3.006 2.472-5.446 5.514-5.446 3.038 0 5.506 2.44 5.506 5.446 0 3.009-2.467 5.447-5.506 5.447zM119.033.798l-.433 1.938c-1.777-1.648-4.125-2.736-7.017-2.736-6.609 0-11.963 5.298-11.963 11.834 0 6.535 5.146 11.836 11.754 11.836.938 0 1.827-.204 2.679-.537l-2.161 8.867h7.184l6.912-31.201-6.955-.001zm-7.45 16.483c-3.042 0-5.512-2.437-5.512-5.447s2.47-5.449 5.512-5.449c3.039 0 5.508 2.438 5.508 5.449s-2.469 5.447-5.508 5.447zM19.263 22.912l1.371-6.114h-9.598l10.993-10.826 1.13-5.078h-18.504l-1.36 6.15h9.45l-11.608 10.72-1.137 5.148h19.263zM42.116.894l-8.215 15.104-2.035-15.104h-7.186l4.214 22.019h8.148l12.602-22.019h-7.528z" fill="#fff"/></svg>
