<?xml version="1.0" encoding="utf-8"?>
<!-- Generator: Adobe Illustrator 17.0.0, SVG Export Plug-In . SVG Version: 6.00 Build 0)  -->
<!DOCTYPE svg PUBLIC "-//W3C//DTD SVG 1.1//EN" "http://www.w3.org/Graphics/SVG/1.1/DTD/svg11.dtd">
<svg version="1.1" id="Слой_1" xmlns="http://www.w3.org/2000/svg" xmlns:xlink="http://www.w3.org/1999/xlink" x="0px" y="0px"
	 width="32.292px" height="31.944px" viewBox="0 0 32.292 31.944" enable-background="new 0 0 32.292 31.944" xml:space="preserve">
<path fill="#D1D2D3" d="M16.146,0.769c-8.229,0-14.901,6.671-14.901,14.901c0,8.229,6.671,14.9,14.901,14.9
	c8.229,0,14.901-6.67,14.901-14.9C31.046,7.441,24.375,0.769,16.146,0.769z M24.971,12.447c0.007,0.173,0.01,0.345,0.01,0.52
	c0,5.309-4.041,11.431-11.429,11.431c-2.269,0-4.381-0.665-6.159-1.805c0.315,0.037,0.635,0.057,0.958,0.057
	c1.883,0,3.614-0.643,4.99-1.721c-1.758-0.032-3.242-1.194-3.752-2.79c0.244,0.047,0.497,0.072,0.755,0.072
	c0.365,0,0.722-0.05,1.059-0.142c-1.839-0.369-3.224-1.992-3.224-3.939c0-0.018,0-0.034,0-0.051
	c0.542,0.301,1.162,0.481,1.821,0.503c-1.078-0.72-1.787-1.951-1.787-3.344c0-0.736,0.197-1.427,0.544-2.019
	c1.981,2.431,4.942,4.03,8.28,4.197c-0.067-0.294-0.104-0.6-0.104-0.915c0-2.219,1.799-4.018,4.019-4.018
	c1.155,0,2.2,0.488,2.932,1.269c0.915-0.18,1.775-0.515,2.552-0.975c-0.3,0.939-0.938,1.726-1.767,2.223
	c0.812-0.097,1.587-0.313,2.307-0.632C26.437,11.173,25.756,11.881,24.971,12.447z"/>
</svg>
