<?xml version="1.0" encoding="utf-8"?>
<!-- Generator: Adobe Illustrator 18.0.0, SVG Export Plug-In . SVG Version: 6.00 Build 0)  -->
<!DOCTYPE svg PUBLIC "-//W3C//DTD SVG 1.1//EN" "http://www.w3.org/Graphics/SVG/1.1/DTD/svg11.dtd">
<svg version="1.1" id="Layer_1" xmlns="http://www.w3.org/2000/svg" xmlns:xlink="http://www.w3.org/1999/xlink" x="0px" y="0px"
	 viewBox="0 0 128.4 78.2" enable-background="new 0 0 128.4 78.2" xml:space="preserve">
<g>
	<path fill="#010101" d="M65.3,6.7c2-2.6,4.1-4.4,6-5.3c-0.7-0.1-1.5-0.1-2.2-0.1c-4,0-7.9,1.2-11.7,3.2L65.3,6.7z"/>
	<path fill="#010101" d="M46.4,14l12.4,3.5c1.8-3.8,3.8-7.1,5.7-9.7L56,5.3C52.5,7.5,49.3,10.4,46.4,14"/>
	<path fill="#010101" d="M79,14.9c0-1.1-0.1-2.2-0.2-3.2L65.9,8.1C64,10.7,62,14,60.2,17.8L78.6,23C78.9,20.2,79,17.4,79,14.9"/>
	<path fill="#010101" d="M36.7,11.2l8.5,2.4c2.8-3.5,5.9-6.5,9.3-8.7l-5.9-1.7C44.2,5.1,40.1,7.9,36.7,11.2"/>
	<path fill="#010101" d="M35.7,49.9l12.8,3.6c0.7-5.5,1.9-11.6,3.6-17.7c1.8-6.3,3.9-12,6.2-17l-12.7-3.6c-3.5,4.7-6.3,10.3-8,16.5
		C35.8,37.8,35.2,44,35.7,49.9"/>
	<path fill="#010101" d="M77.7,3.2c1.2,1.7,2,4.3,2.4,7.6l7.9,2.2C85.4,8.7,81.9,5.2,77.7,3.2"/>
	<path fill="#010101" d="M48.1,66.1c-0.1-0.9-0.1-1.8-0.1-2.7c-0.1-2.6,0.1-5.5,0.4-8.5l-12.4-3.5c0.4,3.1,1,6,2.1,8.8
		c0.5,1.3,1,2.4,1.6,3.6L48.1,66.1z"/>
	<path fill="#010101" d="M92.4,26.9c-0.6-4.5-1.8-8.7-3.6-12.4l-8.5-2.4c0.1,0.9,0.1,1.8,0.1,2.7c0.1,2.6-0.1,5.5-0.4,8.5L92.4,26.9
		z"/>
	<path fill="#010101" d="M36.9,60.5c-1.1-3-1.8-6.2-2.2-9.6l-8.5-2.4c1.2,4.7,3.2,9.1,5.9,13l5.9,1.7C37.6,62.4,37.2,61.5,36.9,60.5
		"/>
	<path fill="#010101" d="M68.1,60.4l-18.4-5.2c-0.3,2.9-0.4,5.6-0.4,8.1c0,1.1,0.1,2.2,0.2,3.2l12.9,3.6
		C64.3,67.6,66.3,64.3,68.1,60.4"/>
	<path fill="#010101" d="M74.9,42.2c1.7-6.2,2.9-12.2,3.6-17.7l-18.9-5.3c-2.3,5-4.4,10.8-6.2,17c-1.7,6.2-2.9,12.2-3.6,17.7
		l18.9,5.3C71,54.2,73.1,48.4,74.9,42.2"/>
	<path fill="#010101" d="M53.8,75.9c0.3,0.1,0.6,0.1,0.8,0.1c2.1,0,4.5-1.8,7-4.9l-12-3.4C50.2,72.4,51.7,75.4,53.8,75.9"/>
	<path fill="#010101" d="M74.5,2.3c-0.3-0.1-0.6-0.1-0.8-0.1c-2.1,0-4.5,1.8-7,4.9l12,3.4C78,5.8,76.6,2.9,74.5,2.3"/>
	<path fill="#010101" d="M34.5,49.5c-0.5-5.9,0.1-12.1,1.9-18.2c1.7-6.2,4.5-11.8,8-16.5l-8.7-2.5c-4.2,4.4-7.4,9.9-9.1,16.2
		c-1.8,6.3-1.9,12.6-0.6,18.6L34.5,49.5z"/>
	<path fill="#010101" d="M55.8,4c3.7-2.2,7.7-3.6,11.7-3.9c-5.9-0.5-11.8,0.3-17.2,2.4L55.8,4z"/>
	<path fill="#010101" d="M89.5,13.5l5.5,1.5c-3.5-4.6-8.1-8.4-13.5-11C84.8,6.4,87.5,9.6,89.5,13.5"/>
	<path fill="#010101" d="M38.7,64.7l-5.4-1.5c3.5,4.5,8.1,8.3,13.5,11C43.5,71.9,40.8,68.7,38.7,64.7"/>
	<path fill="#010101" d="M93.7,28.7c0.5,5.8-0.1,12-1.8,18.2c-1.7,6.2-4.5,11.8-8,16.5l8.7,2.5c4.2-4.4,7.4-9.9,9.1-16.2
		c1.8-6.3,1.9-12.6,0.6-18.6L93.7,28.7z"/>
	<path fill="#010101" d="M72.5,74.2c-3.7,2.2-7.7,3.6-11.7,3.9c5.9,0.5,11.8-0.3,17.2-2.4L72.5,74.2z"/>
	<path fill="#010101" d="M50.6,75c-1.2-1.7-2-4.3-2.4-7.6l-7.9-2.2C42.9,69.7,46.4,73.1,50.6,75"/>
	<path fill="#010101" d="M81.8,64.3l-12.4-3.5c-1.8,3.8-3.8,7.1-5.7,9.7l8.6,2.4C75.8,70.8,79,67.8,81.8,64.3"/>
	<path fill="#010101" d="M63,71.5c-2,2.6-4.1,4.4-6,5.3c0.7,0.1,1.5,0.1,2.2,0.1c4,0,7.9-1.2,11.7-3.2L63,71.5z"/>
	<path fill="#010101" d="M91.6,67l-8.5-2.4c-2.8,3.5-5.9,6.5-9.3,8.7l5.9,1.7C84.1,73.1,88.1,70.4,91.6,67"/>
	<path fill="#010101" d="M102.1,29.7c-1.2-4.7-3.2-9.1-5.9-13L90.3,15c1.7,3.7,2.8,7.8,3.3,12.3L102.1,29.7z"/>
	<path fill="#010101" d="M92.5,28.4l-12.7-3.6c-0.7,5.5-1.9,11.6-3.6,17.7c-1.8,6.3-3.9,12-6.2,17l12.7,3.6c3.5-4.7,6.3-10.3,8-16.5
		C92.5,40.3,93.1,34.1,92.5,28.4"/>
	<rect x="0" y="26.4" fill="#010101" width="128.4" height="25.6"/>
	<polygon fill="#FFFFFF" points="2.1,32.6 7.2,32.6 7.2,47.8 9.5,47.8 9.5,32.6 14.6,32.6 14.6,30.4 2.1,30.4 	"/>
	<polygon fill="#FFFFFF" points="20.5,39.8 27.4,39.8 27.4,37.6 20.5,37.6 20.5,32.6 28.1,32.6 28.1,30.4 18.2,30.4 18.2,47.8 
		28.3,47.8 28.3,45.6 20.5,45.6 	"/>
	<polygon fill="#FFFFFF" points="35,30.4 32.6,30.4 32.6,47.8 42.1,47.8 42.1,45.6 35,45.6 	"/>
	<polygon fill="#FFFFFF" points="48.1,39.8 55,39.8 55,37.6 48.1,37.6 48.1,32.6 55.6,32.6 55.6,30.4 45.7,30.4 45.7,47.8 
		55.8,47.8 55.8,45.6 48.1,45.6 	"/>
	<path fill="#FFFFFF" d="M64,40.6h2.8c0,1.4-0.3,3.9-1.3,5c-0.4,0.4-0.8,0.6-1.3,0.6c-3,0-3.2-6-3.2-7.2c0-3.2,0.6-6.9,3.3-6.9
		c0.6,0,1.1,0.2,1.5,0.7c0.8,0.8,1,2.3,1,3.3l0,0.1h2.3l0-0.1c0.1-1.8-0.5-3.6-1.6-4.7c-0.9-0.9-2-1.4-3.1-1.4c-2.6,0-5.7,1.6-5.7,9
		c0,8.8,4.1,9.5,5.4,9.5c1.4,0,2.5-0.8,3-1.8v1.3h2.1v-9.4H64V40.6z"/>
	<path fill="#FFFFFF" d="M78.6,38.1h-2.9v-5.5h2.6c1.3,0,2.3,0.2,2.3,2.8C80.5,38.1,79.3,38.1,78.6,38.1 M82.6,44.6v-1
		c-0.1-2.6-0.4-4.1-1.5-4.4c1.7-0.7,1.8-3.1,1.8-4.1c0-4.3-3-4.7-4.2-4.7h-5.3v17.5h2.4v-7.5h2.8c1.7,0,1.7,1,1.7,2.6
		c0,0.2,0,0.4,0,0.6c0,0.6,0,1.1,0,1.5c0,1.3,0.1,1.9,0.6,2.7l0,0h2.5l-0.1-0.1C82.7,46.6,82.6,45.6,82.6,44.6"/>
	<path fill="#FFFFFF" d="M92,34.7l0-0.3L92,34.7l1.8,6h-3.5L92,34.7z M93.2,30.4H91l-5.1,17.4l0,0.1h2.5l1.4-4.9h4.7l1.4,4.9l0,0.1
		h2.6L93.2,30.4L93.2,30.4z"/>
	<path fill="#FFFFFF" d="M104.2,32.6h2.7c1.8,0,2.5,0.8,2.5,2.8c0,2.4-0.7,3.4-2.5,3.4h-2.7V32.6z M107.1,30.4h-5.3v17.5h2.4V41h2.7
		c1.8,0,4.8-0.7,4.8-5.5C111.7,32.1,110.1,30.4,107.1,30.4"/>
	<polygon fill="#FFFFFF" points="122.5,30.4 122.5,37.4 117.9,37.4 117.9,30.4 115.6,30.4 115.6,47.8 117.9,47.8 117.9,39.6 
		122.5,39.6 122.5,47.8 124.9,47.8 124.9,30.4 	"/>
</g>
</svg>
