<?xml version="1.0" encoding="utf-8"?>
<!-- Generator: Adobe Illustrator 18.0.0, SVG Export Plug-In . SVG Version: 6.00 Build 0)  -->
<!DOCTYPE svg PUBLIC "-//W3C//DTD SVG 1.1//EN" "http://www.w3.org/Graphics/SVG/1.1/DTD/svg11.dtd">
<svg version="1.1" id="Layer_1" xmlns="http://www.w3.org/2000/svg" xmlns:xlink="http://www.w3.org/1999/xlink" x="0px" y="0px"
	 viewBox="0 0 166 42.6" enable-background="new 0 0 166 42.6" xml:space="preserve">
<g>
	<path fill="#010101" d="M78.5,0.1c-8.7,0-15.8,7.1-15.8,15.8c0,8.7,7.1,15.8,15.8,15.8c8.7,0,15.8-7.1,15.8-15.8
		C94.3,7.1,87.2,0.1,78.5,0.1z M78.5,23.1c-4,0-7.3-3.2-7.3-7.3c0-4,3.3-7.3,7.3-7.3c4,0,7.3,3.3,7.3,7.3
		C85.8,19.9,82.5,23.1,78.5,23.1z"/>
	<g>
		<path fill="#010101" d="M112.8,0.1C104,0.1,97,7.1,97,15.9c0,8.7,7.1,15.8,15.8,15.8c8.7,0,15.8-7.1,15.8-15.8
			C128.5,7.1,121.5,0.1,112.8,0.1z M112.8,23.1c-4,0-7.3-3.2-7.3-7.3c0-4,3.3-7.3,7.3-7.3c4,0,7.3,3.3,7.3,7.3
			C120,19.9,116.8,23.1,112.8,23.1z"/>
	</g>
	<g>
		<path fill="#010101" d="M156.9,1.1l-0.6,2.6C154,1.5,150.9,0,147.1,0c-8.7,0-15.8,7.1-15.8,15.8c0,8.7,6.8,15.8,15.5,15.8
			c1.2,0,2.4-0.3,3.5-0.7l-2.8,11.8h9.5L166,1.1H156.9z M147.1,23c-4,0-7.3-3.2-7.3-7.3c0-4,3.3-7.3,7.3-7.3c4,0,7.3,3.2,7.3,7.3
			C154.3,19.8,151.1,23,147.1,23z"/>
	</g>
	<polygon fill="#010101" points="25.4,30.5 27.2,22.4 14.5,22.4 29,8 30.5,1.2 6.1,1.2 4.3,9.4 16.8,9.4 1.5,23.7 0,30.5 	"/>
	<polygon fill="#010101" points="55.5,1.2 44.7,21.3 42,1.2 32.5,1.2 38.1,30.5 48.8,30.5 65.4,1.2 	"/>
</g>
</svg>
